<svg width="131" height="56" viewBox="0 0 131 56" fill="none" xmlns="http://www.w3.org/2000/svg">
<path d="M3.52891 13.61V44.7528H9.6927V13.61C9.88315 13.2734 11.1498 11.0423 12.1185 9.51537C13.1687 7.86026 12.1186 6.32338 10.3684 7.26916C8.83595 8.09726 7.03518 9.19726 6.6108 9.45816C6.18642 9.19726 4.38565 8.09726 2.85323 7.26916C1.10305 6.32338 0.0529445 7.86026 1.10306 9.51537C2.07182 11.0423 3.33847 13.2734 3.52891 13.61Z" fill="#F5F5F5"/>
<path fill-rule="evenodd" clip-rule="evenodd" d="M129.808 45.9382H129.804C129.721 47.5668 128.375 48.862 126.726 48.862C125.024 48.862 123.675 47.4822 123.675 45.7801V36.4077H102.15V44.6959H95.9858V27.8135C95.9858 25.349 96.4104 23.0807 97.2594 21.0087C98.1085 18.9366 99.2878 17.155 100.797 15.6637C102.307 14.1725 104.091 13.0109 106.151 12.1789C108.211 11.347 110.46 10.931 112.897 10.931H126.718C127.142 10.931 127.543 11.0095 127.921 11.1665C128.298 11.3234 128.628 11.5432 128.911 11.8258C129.194 12.1083 129.415 12.438 129.572 12.8147C129.729 13.1914 129.808 13.5917 129.808 14.0155V45.9382ZM123.675 30.2858V17.053H112.897C112.708 17.053 112.307 17.0844 111.694 17.1471C111.096 17.1942 110.397 17.3277 109.595 17.5474C108.809 17.7672 107.975 18.1047 107.095 18.5599C106.214 19.0151 105.404 19.643 104.665 20.4436C103.926 21.2441 103.313 22.2488 102.826 23.4575C102.354 24.6505 102.118 26.1025 102.118 27.8135V30.2858H123.675Z" fill="#F5F5F5"/>
<path d="M90.0728 26.0627C90.4176 24.9655 90.59 23.7193 90.59 22.3243V18.4214C90.59 17.669 90.4568 16.8618 90.1904 15.9997C89.9396 15.1376 89.5163 14.3382 88.9207 13.6015C88.3407 12.8491 87.5805 12.2299 86.6401 11.744C85.6996 11.2425 84.5475 10.9917 83.1839 10.9917H59.9778C59.5389 10.9917 59.1313 11.07 58.7551 11.2268C58.379 11.3835 58.0498 11.603 57.7677 11.8851C57.5012 12.1672 57.2896 12.4964 57.1328 12.8726C56.9761 13.2488 56.8977 13.6485 56.8977 14.0717V44.7075H63.0108V17.1047H83.1839C83.3092 17.1047 83.4425 17.1125 83.5836 17.1282C83.7403 17.1439 83.8814 17.1988 84.0068 17.2928C84.1478 17.3712 84.2576 17.5044 84.3359 17.6925C84.43 17.8649 84.477 18.1236 84.477 18.4684V22.3243C84.477 23.1237 84.3516 23.8369 84.1008 24.4639C83.85 25.0752 83.4895 25.6003 83.0193 26.0392C82.5647 26.4781 82.0161 26.8307 81.3735 27.0972C80.7465 27.348 80.0489 27.5047 79.2809 27.5674H65.456V33.6805H69.8527L82.5961 44.7075H92.0478L79.2809 33.6805C80.0333 33.6805 80.8327 33.5943 81.6791 33.4219C82.5412 33.2494 83.3876 32.9751 84.2184 32.5989C85.0648 32.2071 85.872 31.7133 86.6401 31.1177C87.4081 30.5221 88.0821 29.8089 88.6621 28.9781C89.2577 28.1317 89.7279 27.1599 90.0728 26.0627Z" fill="#F5F5F5"/>
<path fill-rule="evenodd" clip-rule="evenodd" d="M43.6606 44.7075H49.7737V14.0717C49.7737 13.6485 49.6953 13.2488 49.5386 12.8726C49.3818 12.4964 49.1624 12.1672 48.8802 11.8851C48.5981 11.603 48.2689 11.3835 47.8927 11.2268C47.5166 11.07 47.1169 10.9917 46.6936 10.9917H32.9158C30.4862 10.9917 28.2448 11.407 26.1914 12.2378C24.1381 13.0685 22.359 14.2284 20.8543 15.7175C19.3495 17.2066 18.1739 18.9857 17.3275 21.0547C16.4811 23.1237 16.0579 25.3887 16.0579 27.8496V44.7075H22.1709V36.4314H43.6606V44.7075ZM43.6606 30.3183H22.1709V27.8496C22.1709 26.1411 22.406 24.6912 22.8763 23.4999C23.3622 22.293 23.9735 21.2898 24.7102 20.4904C25.4469 19.691 26.2541 19.064 27.1319 18.6095C28.0097 18.1549 28.8404 17.8179 29.6241 17.5985C30.4235 17.379 31.121 17.2458 31.7167 17.1988C32.328 17.1361 32.7277 17.1047 32.9158 17.1047H43.6606V30.3183Z" fill="#F5F5F5"/>
</svg>
