<svg width="236" height="100" viewBox="0 0 236 100" fill="none" xmlns="http://www.w3.org/2000/svg">
<path d="M5.78716 12.0547V68.6782H16.9941V12.0547C17.3403 11.4428 19.6433 7.38617 21.4047 4.61002C23.314 1.60072 21.4047 -1.19359 18.2226 0.526003C15.4363 2.03165 12.1622 4.03164 11.3906 4.50601C10.619 4.03164 7.34488 2.03165 4.55866 0.526003C1.37651 -1.19359 -0.532779 1.60072 1.37652 4.61002C3.13791 7.38619 5.44092 11.4429 5.78716 12.0547Z" fill="url(#paint0_linear_20_602)"/>
<path fill-rule="evenodd" clip-rule="evenodd" d="M235.385 94.6839H235.378C235.228 97.6451 232.78 100 229.781 100C226.687 100 224.235 97.4912 224.235 94.3966V53.5052H185.097V68.5747H173.891V37.8793C173.891 33.3984 174.662 29.2743 176.206 25.5069C177.75 21.7396 179.894 18.5002 182.639 15.7889C185.383 13.0775 188.628 10.9655 192.373 9.45288C196.118 7.94024 200.206 7.18391 204.638 7.18391H229.767C230.539 7.18391 231.268 7.32661 231.954 7.61202C232.64 7.89742 233.241 8.29699 233.755 8.81072C234.27 9.32445 234.67 9.9238 234.956 10.6088C235.242 11.2937 235.385 12.0215 235.385 12.7921V94.6839ZM224.235 42.3744V18.3147H204.638C204.295 18.3147 203.566 18.3718 202.451 18.486C201.364 18.5716 200.092 18.8142 198.634 19.2138C197.205 19.6133 195.689 20.2269 194.088 21.0546C192.488 21.8823 191.015 23.0239 189.672 24.4795C188.328 25.9351 187.213 27.7617 186.327 29.9593C185.469 32.1284 185.04 34.7684 185.04 37.8793V42.3744H224.235Z" fill="url(#paint1_linear_20_602)"/>
<path d="M208.515 99.3849C209.419 99.7722 210.435 99.9658 211.565 99.9658C212.759 99.9658 213.791 99.7399 214.662 99.2881C215.55 98.8203 216.219 98.2071 216.671 97.4488C217.139 96.6905 217.373 95.8838 217.373 95.0287C217.373 93.9638 217.123 93.1168 216.623 92.4876C216.139 91.8422 215.542 91.3662 214.832 91.0597C214.138 90.7531 213.235 90.4466 212.121 90.14C211.282 89.9141 210.621 89.7044 210.137 89.5108C209.653 89.3172 209.249 89.059 208.927 88.7364C208.62 88.3975 208.467 87.97 208.467 87.4537C208.467 86.6954 208.717 86.1145 209.217 85.7112C209.717 85.3078 210.363 85.1061 211.153 85.1061C212.025 85.1061 212.726 85.324 213.259 85.7596C213.791 86.1952 214.082 86.7196 214.13 87.3327H217.179C217.066 85.9129 216.486 84.7996 215.437 83.9929C214.404 83.17 213.073 82.7586 211.444 82.7586C210.298 82.7586 209.29 82.9522 208.419 83.3395C207.547 83.7267 206.87 84.2833 206.386 85.0093C205.902 85.7354 205.66 86.5824 205.66 87.5505C205.66 88.5992 205.902 89.4382 206.386 90.0674C206.87 90.6967 207.45 91.1646 208.128 91.4711C208.822 91.7615 209.717 92.0519 210.814 92.3423C211.686 92.5682 212.363 92.778 212.847 92.9716C213.348 93.1652 213.759 93.4395 214.082 93.7944C214.42 94.1494 214.59 94.6092 214.59 95.1739C214.59 95.8999 214.324 96.4969 213.791 96.9648C213.259 97.4166 212.517 97.6424 211.565 97.6424C210.645 97.6424 209.927 97.4085 209.411 96.9406C208.911 96.4727 208.628 95.8757 208.564 95.1497H205.611C205.611 96.1178 205.869 96.9648 206.386 97.6908C206.902 98.4169 207.612 98.9816 208.515 99.3849Z" fill="url(#paint2_linear_20_602)"/>
<path d="M193.912 85.2029V90.14H199.72V92.3907H193.912V97.5456H200.446V99.7964H191.153V82.9522H200.446V85.2029H193.912Z" fill="url(#paint3_linear_20_602)"/>
<path d="M185.348 99.7964V82.9764H182.396L176.515 96.1662L170.61 82.9764H167.633V99.7964H170.392V88.2765L175.547 99.7964H177.459L182.59 88.2765V99.7964H185.348Z" fill="url(#paint4_linear_20_602)"/>
<path fill-rule="evenodd" clip-rule="evenodd" d="M158.721 96.3598H151.678L150.468 99.7964H147.588L153.614 82.9522H156.809L162.835 99.7964H159.931L158.721 96.3598ZM157.946 94.109L155.211 86.292L152.452 94.109H157.946Z" fill="url(#paint5_linear_20_602)"/>
<path d="M138.042 85.929C138.816 86.3485 139.421 86.9777 139.857 87.8167H143.173C142.543 86.2033 141.527 84.9609 140.123 84.0897C138.736 83.2023 137.147 82.7586 135.356 82.7586C133.791 82.7586 132.347 83.1297 131.024 83.8719C129.717 84.5979 128.676 85.6144 127.902 86.9212C127.143 88.2281 126.764 89.7044 126.764 91.3501C126.764 92.9958 127.143 94.4721 127.902 95.7789C128.676 97.0858 129.717 98.1103 131.024 98.8525C132.33 99.5786 133.774 99.9416 135.356 99.9416C136.824 99.9416 138.155 99.6189 139.349 98.9735C140.559 98.312 141.535 97.4327 142.277 96.3356C143.036 95.2384 143.503 94.0364 143.681 92.7296V90.5757H134.412V92.778H140.728C140.519 94.2139 139.946 95.3514 139.01 96.1904C138.074 97.0294 136.856 97.4488 135.356 97.4488C134.242 97.4488 133.25 97.1987 132.379 96.6986C131.508 96.1984 130.822 95.4885 130.322 94.5689C129.838 93.6331 129.596 92.5602 129.596 91.3501C129.596 90.14 129.838 89.0752 130.322 88.1555C130.822 87.2359 131.508 86.526 132.379 86.0258C133.25 85.5256 134.242 85.2756 135.356 85.2756C136.372 85.2756 137.268 85.4934 138.042 85.929Z" fill="url(#paint6_linear_20_602)"/>
<path d="M163.14 34.696C163.767 32.7011 164.08 30.4354 164.08 27.899V20.8028C164.08 19.4348 163.838 17.9671 163.353 16.3996C162.897 14.8322 162.128 13.3787 161.045 12.0393C159.991 10.6713 158.608 9.54561 156.898 8.66214C155.188 7.75017 153.094 7.29419 150.614 7.29419H108.421C107.623 7.29419 106.882 7.43668 106.199 7.72167C105.515 8.00666 104.916 8.40565 104.403 8.91864C103.919 9.43162 103.534 10.0301 103.249 10.7141C102.964 11.3981 102.821 12.1248 102.821 12.8943V68.5957H113.936V18.4088H150.614C150.842 18.4088 151.085 18.4231 151.341 18.4516C151.626 18.4801 151.883 18.5798 152.111 18.7508C152.367 18.8933 152.567 19.1356 152.709 19.4775C152.88 19.791 152.965 20.2613 152.965 20.8882V27.899C152.965 29.3525 152.738 30.6492 152.282 31.7891C151.826 32.9006 151.17 33.8553 150.315 34.6533C149.489 35.4513 148.491 36.0925 147.323 36.577C146.183 37.033 144.915 37.318 143.518 37.432H118.382V48.5466H126.376L149.546 68.5957H166.731L143.518 48.5466C144.886 48.5466 146.339 48.3899 147.878 48.0764C149.446 47.7629 150.985 47.2641 152.495 46.5802C154.034 45.8677 155.502 44.97 156.898 43.887C158.295 42.804 159.52 41.5073 160.575 39.9969C161.658 38.4579 162.513 36.691 163.14 34.696Z" fill="url(#paint7_linear_20_602)"/>
<path fill-rule="evenodd" clip-rule="evenodd" d="M78.754 68.5957H89.8686V12.8943C89.8686 12.1248 89.7261 11.3981 89.4411 10.7141C89.1561 10.0301 88.7571 9.43162 88.2441 8.91864C87.7312 8.40565 87.1327 8.00666 86.4487 7.72167C85.7647 7.43668 85.038 7.29419 84.2685 7.29419H59.2178C54.8005 7.29419 50.7251 8.04941 46.9917 9.55986C43.2584 11.0703 40.0237 13.1792 37.2878 15.8867C34.5519 18.5941 32.4145 21.8287 30.8755 25.5906C29.3366 29.3525 28.5671 33.4706 28.5671 37.9449V68.5957H39.6817V53.5482H78.754V68.5957ZM78.754 42.4336H39.6817V37.9449C39.6817 34.8385 40.1092 32.2024 40.9642 30.0364C41.8476 27.842 42.9591 26.0181 44.2986 24.5646C45.638 23.1112 47.1057 21.9712 48.7017 21.1447C50.2976 20.3183 51.8081 19.7055 53.233 19.3065C54.6865 18.9076 55.9547 18.6653 57.0377 18.5798C58.1491 18.4658 58.8758 18.4088 59.2178 18.4088H78.754V42.4336Z" fill="url(#paint8_linear_20_602)"/>
<defs>
<linearGradient id="paint0_linear_20_602" x1="295.032" y1="83.7462" x2="-48.3198" y2="-44.4237" gradientUnits="userSpaceOnUse">
<stop stop-color="#FFBA00"/>
<stop offset="0.405" stop-color="#007A33"/>
<stop offset="0.925" stop-color="#1E1A78"/>
</linearGradient>
<linearGradient id="paint1_linear_20_602" x1="295.032" y1="83.7462" x2="-48.3198" y2="-44.4237" gradientUnits="userSpaceOnUse">
<stop stop-color="#FFBA00"/>
<stop offset="0.405" stop-color="#007A33"/>
<stop offset="0.925" stop-color="#1E1A78"/>
</linearGradient>
<linearGradient id="paint2_linear_20_602" x1="295.032" y1="83.7462" x2="-48.3198" y2="-44.4237" gradientUnits="userSpaceOnUse">
<stop stop-color="#FFBA00"/>
<stop offset="0.405" stop-color="#007A33"/>
<stop offset="0.925" stop-color="#1E1A78"/>
</linearGradient>
<linearGradient id="paint3_linear_20_602" x1="295.032" y1="83.7462" x2="-48.3198" y2="-44.4237" gradientUnits="userSpaceOnUse">
<stop stop-color="#FFBA00"/>
<stop offset="0.405" stop-color="#007A33"/>
<stop offset="0.925" stop-color="#1E1A78"/>
</linearGradient>
<linearGradient id="paint4_linear_20_602" x1="295.032" y1="83.7462" x2="-48.3198" y2="-44.4237" gradientUnits="userSpaceOnUse">
<stop stop-color="#FFBA00"/>
<stop offset="0.405" stop-color="#007A33"/>
<stop offset="0.925" stop-color="#1E1A78"/>
</linearGradient>
<linearGradient id="paint5_linear_20_602" x1="295.032" y1="83.7462" x2="-48.3198" y2="-44.4237" gradientUnits="userSpaceOnUse">
<stop stop-color="#FFBA00"/>
<stop offset="0.405" stop-color="#007A33"/>
<stop offset="0.925" stop-color="#1E1A78"/>
</linearGradient>
<linearGradient id="paint6_linear_20_602" x1="295.032" y1="83.7462" x2="-48.3198" y2="-44.4237" gradientUnits="userSpaceOnUse">
<stop stop-color="#FFBA00"/>
<stop offset="0.405" stop-color="#007A33"/>
<stop offset="0.925" stop-color="#1E1A78"/>
</linearGradient>
<linearGradient id="paint7_linear_20_602" x1="295.032" y1="83.7462" x2="-48.3198" y2="-44.4237" gradientUnits="userSpaceOnUse">
<stop stop-color="#FFBA00"/>
<stop offset="0.405" stop-color="#007A33"/>
<stop offset="0.925" stop-color="#1E1A78"/>
</linearGradient>
<linearGradient id="paint8_linear_20_602" x1="295.032" y1="83.7462" x2="-48.3198" y2="-44.4237" gradientUnits="userSpaceOnUse">
<stop stop-color="#FFBA00"/>
<stop offset="0.405" stop-color="#007A33"/>
<stop offset="0.925" stop-color="#1E1A78"/>
</linearGradient>
</defs>
</svg>
